<?xml version="1.0" encoding="utf-8"?>
<!-- Generator: Adobe Illustrator 16.0.0, SVG Export Plug-In . SVG Version: 6.00 Build 0)  -->
<!DOCTYPE svg PUBLIC "-//W3C//DTD SVG 1.1//EN" "http://www.w3.org/Graphics/SVG/1.1/DTD/svg11.dtd">
<svg version="1.1" id="Layer_1" xmlns="http://www.w3.org/2000/svg" xmlns:xlink="http://www.w3.org/1999/xlink" x="0px" y="0px"
	 width="960px" height="960px" viewBox="0 0 960 960" enable-background="new 0 0 960 960" xml:space="preserve">
    <defs>
        <linearGradient id="GlassGradient" x1="0" x2="0" y1="0" y2="1">
            <stop offset="5%"  stop-color="#BBDEFB"/>
            <stop offset="50%" stop-color="#90CAF9"/>
            <stop offset="95%" stop-color="#E3F2FD"/>
        </linearGradient>
    </defs>
<g id="Mustache">
	<path id="core" fill="none" stroke="#777777" stroke-miterlimit="10" d="M333,651.167c54.905,0,147-29.366,147-51.167
		c0,20.401,120.3,64,173,64"/>
	<path fill="none" stroke="#777777" stroke-miterlimit="10" d="M528.5,614.974c0,7.602,114.919,36.193,143.334,36.193"/>
	<path fill="none" stroke="#777777" stroke-miterlimit="10" d="M430,614.974C430,619.809,340.336,638,318.5,638"/>
	<path fill="none" stroke="#777777" stroke-miterlimit="10" d="M456.5,633.07c0,7.334-90.171,30.93-108.333,30.93"/>
	<path fill="none" stroke="#777777" stroke-miterlimit="10" d="M506,634c0,7.873,92.607,39.834,112.834,39.834"/>
</g>
<g id="Main">
	<path id="face" fill="#CFD8DC" stroke="#F06292" stroke-width="5" d="M229,288c42,0,251,92.5,251,111c0-18.5,209-111,251-111
		c-25,0-150,260-150,312c-16.834,0-101,60-101,72c0-12-84.166-72-101-72C379,548,254,288,229,288z"/>
	<path id="left-ear" fill="#F06292" d="M363.205,331.894c-24.656,0-74.367,32.937-74.367,49.308
		c0-7.475-59.668-96.891-64.656-96.891C241.084,284.311,363.205,326.085,363.205,331.894z"/>
	<path id="right-ear" fill="#F06292" d="M596.832,331.894c24.656,0,74.367,32.937,74.367,49.308
		c0-7.475,59.668-96.891,64.656-96.891C718.953,284.311,596.832,326.085,596.832,331.894z"/>
	<path id="lips" fill="none" stroke="#F06292" stroke-width="4" d="M526.344,629.963c-9.729,0-46.344-23.685-46.344-29.979
		c0,6.295-36.614,29.979-46.344,29.979"/>
	<g id="nose">
		<path id="love" fill="none" stroke="#F06292" stroke-width="4" d="M477.067,579.554c-15.471-24.788-23.849,6.948,3.067,21.072
			C503.214,580.839,486.597,551.934,477.067,579.554z"/>
	</g>
</g>
<g id="glass">
    <circle fill="url(#GlassGradient)" fill-opacity=".6" stroke="#0D47A1" stroke-width="5" cx="398.024" cy="445.681" r="50"/>
    <circle fill="url(#GlassGradient)" fill-opacity=".6" stroke="#0D47A1" stroke-width="5" cx="561.975" cy="448" r="50"/>
    <path fill="none" stroke="#0D47A1" stroke-width="3" d="M448.024,445.681c15.894-15.894,48.04-15.91,63.95,0"/>
    <path fill="none" stroke="#0D47A1" stroke-width="3" d="M611.975,445.681c0-1.531,51.431-33.5,53.859-33.5"/>
    <path fill="none" stroke="#0D47A1" stroke-width="3" d="M348.024,445.681c0-1.531-51.431-33.5-53.859-33.5"/>
</g>
</svg>
