<?xml version="1.0" encoding="utf-8"?>
<!-- Generator: Adobe Illustrator 16.0.0, SVG Export Plug-In . SVG Version: 6.00 Build 0)  -->
<!DOCTYPE svg PUBLIC "-//W3C//DTD SVG 1.1//EN" "http://www.w3.org/Graphics/SVG/1.1/DTD/svg11.dtd">
<svg version="1.1" id="Layer_1" xmlns="http://www.w3.org/2000/svg" xmlns:xlink="http://www.w3.org/1999/xlink" x="0px" y="0px"
	 width="960px" height="960px" viewBox="0 0 960 960" enable-background="new 0 0 960 960" xml:space="preserve">
<path fill="none" stroke="#FF0000" stroke-miterlimit="10" d="M480,399c0-18.5,209-111,251-111"/>
<path fill="none" stroke="#00FF00" stroke-miterlimit="10" d="M581,600c0-52,125-312,150-312"/>
<path fill="none" stroke="#0000FF" stroke-miterlimit="10" d="M480,672c0-12,84.166-72,101-72"/>
<path fill="none" stroke="#FF0000" stroke-miterlimit="10" d="M229,288c42,0,251,92.5,251,111"/>
<path fill="none" stroke="#00FF00" stroke-miterlimit="10" d="M229,288c25,0,150,260,150,312"/>
<path fill="none" stroke="#0000FF" stroke-miterlimit="10" d="M379,600c16.834,0,101,60,101,72"/>
<path fill="none" stroke="#000000" stroke-miterlimit="10" d="M293.656,384.891c0-16.372,49.711-49.308,74.367-49.308"/>
<path fill="none" stroke="#000000" stroke-miterlimit="10" d="M368.023,335.583C368.023,329.774,245.903,288,229,288"/>
<path fill="none" stroke="#000000" stroke-miterlimit="10" d="M293.656,384.891c0-7.475-59.668-96.891-64.656-96.891"/>
<path fill="none" stroke="#000000" stroke-miterlimit="10" d="M207.659,178.583c-24.656,0-74.367,32.937-74.367,49.308
	c0-7.475-59.668-96.891-64.656-96.891C85.539,131,207.659,172.774,207.659,178.583z"/>
<path fill="none" stroke="#000000" stroke-miterlimit="10" d="M593.139,334.72c24.656,0,74.367,32.937,74.367,49.308
	c0-7.475,59.668-96.891,64.656-96.891C715.26,287.137,593.139,328.911,593.139,334.72z"/>
<path fill="none" stroke="#000000" stroke-miterlimit="10" d="M526.344,629.979c-9.73,0-46.344-23.685-46.344-29.979
	c0,6.295-36.614,29.979-46.344,29.979"/>
<path fill="none" stroke="#000000" stroke-miterlimit="10" d="M731,697.167"/>
<path fill="none" stroke="#000000" stroke-miterlimit="10" d="M480,600"/>
<path fill="none" stroke="#000000" stroke-miterlimit="10" d="M218.5,703.834"/>
<path fill="none" stroke="#000000" stroke-miterlimit="10" d="M480,600"/>
<path fill="none" stroke="#000000" stroke-miterlimit="10" d="M505.167,600c0,11.583,126.934,55.167,160.667,55.167"/>
<path fill="none" stroke="#000000" stroke-miterlimit="10" d="M492.5,639.167c0,10.078,61.097,48,77.334,48"/>
<path fill="none" stroke="#000000" stroke-miterlimit="10" d="M473.167,639.167c0,8.259-46.349,39.333-58.667,39.333"/>
<path fill="none" stroke="#000000" stroke-miterlimit="10" d="M438.5,604.5c0,8.679-73.21,41.334-92.667,41.334"/>
<circle fill="none" stroke="#000000" stroke-miterlimit="10" cx="398.024" cy="441.681" r="50"/>
<circle fill="none" stroke="#000000" stroke-miterlimit="10" cx="561.975" cy="444" r="50"/>
<path fill="none" stroke="#000000" stroke-miterlimit="10" d="M448.024,441.681c15.894-15.894,48.04-15.91,63.95,0"/>
<path fill="none" stroke="#000000" stroke-miterlimit="10" d="M611.975,441.681c0-1.531,51.431-33.5,53.859-33.5"/>
<path fill="none" stroke="#000000" stroke-miterlimit="10" d="M348.024,441.681c0-1.531-51.431-33.5-53.859-33.5"/>
</svg>
