<?xml version="1.0" encoding="utf-8"?>
<!-- Generator: Adobe Illustrator 16.0.0, SVG Export Plug-In . SVG Version: 6.00 Build 0)  -->
<!DOCTYPE svg PUBLIC "-//W3C//DTD SVG 1.1//EN" "http://www.w3.org/Graphics/SVG/1.1/DTD/svg11.dtd">
<svg version="1.1" id="Layer_1" xmlns="http://www.w3.org/2000/svg" xmlns:xlink="http://www.w3.org/1999/xlink" x="0px" y="0px"
	 width="960px" height="960px" viewBox="0 0 960 960" enable-background="new 0 0 960 960" xml:space="preserve">
<path fill="none" stroke="#FF0000" stroke-miterlimit="10" d="M480,399c0-18.5,209-111,251-111"/>
<path fill="none" stroke="#00FF00" stroke-miterlimit="10" d="M581,600c0-52,125-312,150-312"/>
<path fill="none" stroke="#0000FF" stroke-miterlimit="10" d="M480,672c0-12,84.166-72,101-72"/>
<path fill="none" stroke="#FF0000" stroke-miterlimit="10" d="M229,288c42,0,251,92.5,251,111"/>
<path fill="none" stroke="#00FF00" stroke-miterlimit="10" d="M229,288c25,0,150,260,150,312"/>
<path fill="none" stroke="#0000FF" stroke-miterlimit="10" d="M379,600c16.834,0,101,60,101,72"/>
<path fill="none" stroke="#000000" stroke-miterlimit="10" d="M293.656,384.891c0-16.372,49.711-49.308,74.367-49.308"/>
<path fill="none" stroke="#000000" stroke-miterlimit="10" d="M368.023,335.583C368.023,329.774,245.903,288,229,288"/>
<path fill="none" stroke="#000000" stroke-miterlimit="10" d="M293.656,384.891c0-7.475-59.668-96.891-64.656-96.891"/>
</svg>
