<?xml version="1.0" ?><!DOCTYPE svg  PUBLIC '-//W3C//DTD SVG 1.1//EN'  'http://www.w3.org/Graphics/SVG/1.1/DTD/svg11.dtd'><svg enable-background="new 0 0 24 24" height="24px" id="Layer_1" version="1.1" viewBox="0 0 24 24" width="24px" xml:space="preserve" xmlns="http://www.w3.org/2000/svg" xmlns:xlink="http://www.w3.org/1999/xlink"><path d="M23.1,0L23.1,0h-0.1H1C0.4,0,0,0.9,0,1.5V24h2v-2h20v2h2V1.4C24,0.9,23.6,0,23.1,0z M11,20v-4h1v4H11z M16,20v-4h1v4H16z   M18,20v-4.5V14h2v6H18z M22,20h-1v-7h-4v2h-2v5h-2v-5h-3v5H2v-8h20V20z M9,6.3l1.7,3.7H9V6.3z M11.8,10l-1.5-3.4l0.9-0.5l1.6,3.9  H11.8z M8,10H7V6h1V10z M6,5.5V10H4V4h2V5.5z M22,10h-8.1l-2.1-5.1L9,6.3V5H7V3H3v7H2V2h20V10z"/></svg>