<?xml version="1.0" encoding="utf-8"?>
<!-- Generator: Adobe Illustrator 16.0.0, SVG Export Plug-In . SVG Version: 6.00 Build 0)  -->
<!DOCTYPE svg PUBLIC "-//W3C//DTD SVG 1.1//EN" "http://www.w3.org/Graphics/SVG/1.1/DTD/svg11.dtd">
<svg version="1.1" id="Layer_1" xmlns="http://www.w3.org/2000/svg" xmlns:xlink="http://www.w3.org/1999/xlink" x="0px" y="0px"
	 width="1200px" height="1200px" viewBox="0 0 1200 1200" enable-background="new 0 0 1200 1200" xml:space="preserve">
<g id="book">
	<polygon id="book-fly" fill="#795548" stroke="#6D4C41" stroke-width="48" points="600,258 925,58 880,558 600,758 320,558 275,58 
			"/>
	<polygon id="book-bind" fill="#6D4C41" stroke="#6D4C41" stroke-width="48" points="589,256 611,256 611,758 589,758 	"/>
</g>
<g id="cat-face">
	<polygon id="face-frame" fill="#E0E0E0" stroke="#AAAAAA" stroke-width="80" points="600,360 1000,160 950,760 600,960 250,760 
		200,160 	"/>
	<g id="left-eye">
		<path fill="#B3E5FC" d="M563.341,517.404c0,0-60.119,93.995-172.349,64.147c-112.198-29.876-116.943-141.128-116.943-141.128
			s60.123-93.977,172.299-64.131C558.565,406.166,563.341,517.404,563.341,517.404z"/>
		<path fill="#4FC3F7" d="M551.837,469.278c0,0-53.407,59.112-126.693,59.112c-79.576,0-126.787-115.54-126.787-115.54
			s52.322-61.401,148.056-36.622C534.106,398.873,551.837,469.278,551.837,469.278z"/>
		<path fill="#4C5359" d="M470.338,467.873c0,128.586-61.981,128.586-61.981,0C408.342,339.241,470.338,339.241,470.338,467.873z"/>
	</g>
	<g id="right-eye">
		<path fill="#B3E5FC" d="M752.154,377.579c112.183-29.847,172.316,64.133,172.316,64.133s-4.743,111.252-116.943,141.128
			c-112.227,29.847-172.363-64.146-172.363-64.146S639.957,407.456,752.154,377.579z"/>
		<path fill="#4FC3F7" d="M752.107,377.518c95.738-24.771,148.057,36.624,148.057,36.624S852.955,529.669,773.38,529.669
			c-73.288,0-126.694-59.114-126.694-59.114S664.418,400.162,752.107,377.518z"/>
		<path fill="#4C5359" d="M790.164,469.162c0,128.585-61.982,128.585-61.982,0C728.182,340.53,790.18,340.53,790.164,469.162z"/>
	</g>
	<path id="lips" fill="none" stroke="#AAAAAA" stroke-width="64" d="M761.421,866.698c-33.676,0-160.422-109.979-160.422-139.198
		c0,29.229-126.743,139.198-160.422,139.198"/>
	<path id="nose" fill="#777777" d="M573.783,649.061c4.683-0.313,8.917,0.604,13.146,3.021c0.563,0.313,2.354,1.394,2.823,1.81
		c0.563,0.521,4.457,3.578,5.218,4.577c0.396,0.479,4.104,4.979,4.104,4.979s3.54-3.771,4.166-4.41
		c1.076-1.063,2.084-1.748,2.867-2.33c2.271-1.729,4.604-3.271,7.229-4.764c1.836-1.063,4.994-2.039,6.688-2.271
		c0.472-0.063,1.725-0.229,2.271-0.313c6.396-0.913,14.65,1.664,19.332,4.357c5.178,2.979,8.736,7.363,11.49,12.854
		c0.604,1.229,1.994,4.494,2.263,5.305c1.456,4.354,1.793,9.84,1.367,15.271c-0.646,8.438-4.276,17.117-8.146,22.354
		c-0.783,1.04-2.575,4.078-4.75,6.698c-7.233,8.653-17.942,19.43-28.729,26.253c-3.021,1.913-14.604,8.257-14.604,8.257
		s-12.072-6.729-14-7.924c-12.206-7.572-25.691-18.308-33.229-30.437c-2.618-4.229-5.646-8.485-7.366-13.646
		c-0.812-2.371-1.521-4.409-2.084-7.052c-1.313-6.222-0.918-13.543,0.854-19.351c0.783-2.578,1.947-5.354,3.063-7.56
		c4.062-7.885,11.581-13.063,21.479-15.082C570.827,649.372,572.327,649.145,573.783,649.061"/>
	<g id="mustache">
		<path fill="none" d="M696.615,751c0,55.273,134.18,100,300,100"/>
		<path fill="none" d="M710.66,718.784c0,55.271,134.18,100,300,100"/>
		<path fill="none" d="M503.66,751c0,55.273-134.18,100-300,100"/>
		<path fill="none" d="M489.615,718.784c0,55.271-134.188,100-300,100"/>
	</g>
</g>
<g id="bow">
	<path id="bow-l" fill="#795548" d="M566.739,1113.013c-51.812,21.979-122.739,51.618-167.271,73.104
		c-14.541,7.103-30.864-3.201-35.205-23.229c-12.443-60.772-12.443-124.076,0-184.85c4.343-20.029,20.67-30.328,35.205-23.229
		c44.534,21.487,115.464,51.131,167.271,73.105V1113.013z"/>
	<path id="bow-r" fill="#795548" d="M635.259,1027.919c51.811-21.984,122.74-51.62,167.275-73.11
		c14.541-7.098,30.857,3.201,35.204,23.232c12.442,60.768,12.442,124.07,0,184.847c-4.347,20.024-20.669,30.329-35.204,23.229
		c-44.537-21.482-115.465-51.132-167.275-73.104V1027.919L635.259,1027.919z"/>
	<g id="bow-crease">
		<path fill="#4E342E" d="M450.385,1115.064c-6.251,0-11.712-4.605-12.622-10.979c-0.98-6.976,3.874-13.438,10.854-14.424
			l112.521-15.915c6.95-0.929,13.433,3.864,14.43,10.854c0.985,6.979-3.874,13.438-10.854,14.427l-112.525,15.911
			C451.585,1115.024,450.984,1115.064,450.385,1115.064z"/>
		<path fill="#4E342E" d="M562.942,1067.308c-0.603,0-1.195-0.041-1.808-0.125l-112.521-15.913
			c-6.981-0.984-11.84-7.441-10.854-14.425c0.998-6.979,7.479-11.739,14.43-10.854l112.521,15.914
			c6.981,0.986,11.848,7.445,10.854,14.427C574.659,1062.703,569.202,1067.308,562.942,1067.308z"/>
		<path fill="#4E342E" d="M751.614,1025.865c6.251,0,11.711,4.604,12.622,10.975c0.98,6.981-3.872,13.438-10.854,14.426
			l-112.521,15.914c-6.954,0.937-13.438-3.858-14.431-10.851c-0.986-6.976,3.872-13.438,10.854-14.424l112.521-15.916
			C750.417,1025.907,751.016,1025.865,751.614,1025.865z"/>
		<path fill="#4E342E" d="M639.057,1073.624c0.603,0,1.196,0.041,1.809,0.123l112.521,15.914c6.98,0.987,11.84,7.451,10.854,14.426
			c-0.998,6.979-7.479,11.742-14.43,10.854l-112.521-15.912c-6.979-0.989-11.845-7.444-10.854-14.428
			C627.338,1078.227,632.798,1073.624,639.057,1073.624z"/>
	</g>
	<path id="bow-knot" fill="#8D6E63" d="M652.132,1104.502c0,9.361-7.658,17.02-17.02,17.02H567.04
		c-9.36,0-17.019-7.654-17.019-17.02v-68.074c0-9.355,7.653-17.02,17.019-17.02h68.072c9.357,0,17.02,7.658,17.02,17.02V1104.502z"
		/>
</g>
</svg>
