<?xml version="1.0" encoding="utf-8"?>
<!-- Generator: Adobe Illustrator 16.0.0, SVG Export Plug-In . SVG Version: 6.00 Build 0)  -->
<!DOCTYPE svg PUBLIC "-//W3C//DTD SVG 1.1//EN" "http://www.w3.org/Graphics/SVG/1.1/DTD/svg11.dtd">
<svg version="1.1" id="Layer_1" xmlns="http://www.w3.org/2000/svg" xmlns:xlink="http://www.w3.org/1999/xlink" x="0px" y="0px"
	 width="1200px" height="1200px" viewBox="0 0 1200 1200" enable-background="new 0 0 1200 1200" xml:space="preserve">
<g id="book">
	<polygon id="book-fly" fill="#795548" stroke="#6D4C41" stroke-width="24" points="600,258 925,58 880,558 600,758 320,558 275,58 
			"/>
	<polygon id="book-bind" fill="#6D4C41" stroke="#6D4C41" stroke-width="48" points="589,256 611,256 611,758 589,758 	"/>
</g>
<g id="cat-face">
	<polygon id="face-frame" fill="#BDBDBD" stroke="#888888" stroke-width="64" points="600,360 1000,160 950,760 600,960 250,760 
		200,160 	"/>
	<g id="left-eye">
		<path fill="#B3E5FC" d="M547.382,503.661c0,0-38.477,60.156-110.303,41.055c-71.808-19.121-74.844-90.322-74.844-90.322
			s38.479-60.146,110.271-41.044C544.325,432.469,547.382,503.661,547.382,503.661z"/>
		<path fill="#4FC3F7" d="M540.02,472.86c0,0-34.181,37.832-81.084,37.832c-50.929,0-81.144-73.945-81.144-73.945
			s33.486-39.297,94.756-23.438C528.671,427.801,540.02,472.86,540.02,472.86z"/>
		<path fill="#4C5359" d="M487.86,471.961c0,82.295-39.668,82.295-39.668,0C448.183,389.637,487.86,389.637,487.86,471.961z"/>
	</g>
	<g id="right-eye">
		<path fill="#B3E5FC" d="M726.002,414.38c71.797-19.102,110.283,41.045,110.283,41.045s-3.037,71.201-74.844,90.322
			c-71.826,19.102-110.313-41.054-110.313-41.054S654.195,433.501,726.002,414.38z"/>
		<path fill="#4FC3F7" d="M725.973,414.341c61.271-15.854,94.756,23.438,94.756,23.438s-30.215,73.938-81.143,73.938
			c-46.904,0-81.084-37.832-81.084-37.832S669.85,428.833,725.973,414.341z"/>
		<path fill="#4C5359" d="M750.328,472.993c0,82.294-39.668,82.294-39.668,0C710.66,390.669,750.338,390.669,750.328,472.993z"/>
	</g>
	<path id="lips" fill="none" stroke="#888888" stroke-width="48" d="M761.421,866.698c-33.676,0-160.422-109.979-160.422-139.198
		c0,29.229-126.743,139.198-160.422,139.198"/>
	<path id="nose" fill="#777777" d="M573.783,649.061c4.683-0.313,8.917,0.604,13.146,3.021c0.563,0.313,2.354,1.394,2.823,1.81
		c0.563,0.521,4.457,3.578,5.218,4.577c0.395,0.479,4.104,4.979,4.104,4.979s3.54-3.771,4.166-4.41
		c1.076-1.063,2.084-1.748,2.867-2.33c2.272-1.729,4.604-3.271,7.229-4.764c1.836-1.063,4.994-2.039,6.688-2.271
		c0.472-0.063,1.725-0.229,2.271-0.313c6.396-0.913,14.65,1.664,19.332,4.358c5.178,2.979,8.736,7.363,11.49,12.854
		c0.604,1.229,1.994,4.494,2.263,5.305c1.456,4.354,1.793,9.84,1.367,15.271c-0.646,8.438-4.276,17.118-8.146,22.354
		c-0.783,1.04-2.575,4.078-4.75,6.698c-7.233,8.653-17.942,19.43-28.729,26.253c-3.021,1.913-14.604,8.257-14.604,8.257
		s-12.073-6.729-14-7.924c-12.207-7.572-25.692-18.307-33.229-30.436c-2.618-4.229-5.646-8.486-7.366-13.646
		c-0.812-2.371-1.521-4.409-2.084-7.052c-1.314-6.221-0.918-13.543,0.854-19.35c0.783-2.578,1.948-5.354,3.063-7.56
		c4.061-7.885,11.581-13.063,21.479-15.082C570.827,649.372,572.327,649.145,573.783,649.061"/>
	<g id="mustache">
		<path fill="none" d="M696.615,751c0,55.273,134.18,100,300,100"/>
		<path fill="none" d="M710.66,718.784c0,55.271,134.18,100,300,100"/>
		<path fill="none" d="M503.66,751c0,55.273-134.18,100-300,100"/>
		<path fill="none" d="M489.615,718.784c0,55.271-134.187,100-300,100"/>
	</g>
</g>
<g id="bow">
	<path id="bow-l" fill="#795548" d="M566.739,1113.013c-51.811,21.979-122.739,51.618-167.271,73.104
		c-14.541,7.103-30.864-3.201-35.205-23.229c-12.444-60.773-12.444-124.076,0-184.85c4.343-20.029,20.67-30.328,35.205-23.229
		c44.534,21.487,115.464,51.13,167.271,73.105V1113.013z"/>
	<path id="bow-r" fill="#795548" d="M635.259,1027.919c51.81-21.984,122.74-51.62,167.275-73.11
		c14.541-7.098,30.858,3.201,35.204,23.232c12.443,60.768,12.443,124.07,0,184.847c-4.346,20.024-20.669,30.329-35.204,23.229
		c-44.537-21.482-115.465-51.132-167.275-73.104V1027.919L635.259,1027.919z"/>
	<g id="bow-crease">
		<path fill="#4E342E" d="M450.385,1115.064c-6.251,0-11.712-4.605-12.622-10.979c-0.981-6.976,3.874-13.438,10.854-14.424
			l112.521-15.915c6.95-0.929,13.432,3.864,14.429,10.854c0.986,6.979-3.874,13.438-10.854,14.426l-112.525,15.912
			C451.585,1115.024,450.984,1115.064,450.385,1115.064z"/>
		<path fill="#4E342E" d="M562.942,1067.308c-0.602,0-1.195-0.041-1.807-0.125l-112.521-15.913
			c-6.981-0.985-11.84-7.442-10.854-14.425c0.998-6.979,7.479-11.739,14.429-10.854l112.521,15.914
			c6.981,0.987,11.848,7.446,10.854,14.427C574.659,1062.703,569.202,1067.308,562.942,1067.308z"/>
		<path fill="#4E342E" d="M751.614,1025.865c6.251,0,11.711,4.605,12.622,10.975c0.981,6.981-3.872,13.438-10.854,14.426
			l-112.521,15.914c-6.954,0.936-13.438-3.859-14.43-10.851c-0.987-6.976,3.872-13.438,10.854-14.424l112.521-15.916
			C750.417,1025.907,751.016,1025.865,751.614,1025.865z"/>
		<path fill="#4E342E" d="M639.057,1073.624c0.602,0,1.196,0.041,1.808,0.123l112.521,15.914c6.98,0.987,11.84,7.451,10.854,14.426
			c-0.998,6.979-7.479,11.742-14.429,10.854l-112.521-15.912c-6.979-0.989-11.845-7.444-10.854-14.428
			C627.338,1078.227,632.798,1073.624,639.057,1073.624z"/>
	</g>
	<path id="bow-knot" fill="#8D6E63" d="M652.132,1104.502c0,9.361-7.658,17.02-17.02,17.02H567.04
		c-9.36,0-17.019-7.655-17.019-17.02v-68.074c0-9.356,7.654-17.02,17.019-17.02h68.072c9.358,0,17.02,7.658,17.02,17.02V1104.502z"
		/>
</g>
</svg>
